<?xml version="1.0" encoding="utf-8"?>
<!-- Generator: Adobe Illustrator 25.0.0, SVG Export Plug-In . SVG Version: 6.00 Build 0)  -->
<svg version="1.1" xmlns="http://www.w3.org/2000/svg" xmlns:xlink="http://www.w3.org/1999/xlink" x="0px" y="0px"
	 viewBox="0 0 600 200" style="enable-background:new 0 0 600 200;" xml:space="preserve">
<style type="text/css">
	.st0{fill:url(#SVGID_1_);}
</style>
<g id="Mask">
	<linearGradient id="SVGID_1_" gradientUnits="userSpaceOnUse" x1="300" y1="0" x2="300" y2="200">
		<stop  offset="0.1314" style="stop-color:#FFFFFF"/>
		<stop  offset="0.1485" style="stop-color:#FFFFFF"/>
		<stop  offset="0.3686" style="stop-color:#FFFFFF"/>
		<stop  offset="0.7345" style="stop-color:#000000"/>
		<stop  offset="1" style="stop-color:#231F20"/>
	</linearGradient>
	<rect class="st0" width="600" height="200"/>
</g>
<g id="Layer_1">
	<g>
		<path d="M370.99,12.03"/>
		<path d="M340.09,187.97l-0.56-0.07l-0.34-0.09l-0.31-0.11l-0.32-0.13l-0.34-0.18l-0.23-0.16l-36.12-19.8
			c-0.86-0.47-1.51-1.2-1.87-2.1c-0.36,0.88-1.01,1.62-1.85,2.1l-36.34,19.91l-0.25,0.16l-0.23,0.11l-0.13,0.09l-0.48,0.13
			l-0.65,0.13l-0.39,0.02l-0.38-0.02l-0.65-0.09l-0.39-0.11l-0.56-0.25l-36.57-20.07c-0.92-0.5-1.6-1.33-1.94-2.3h-0.16l-0.05-0.81
			l-0.02-0.56v-48.62c0-1.72,1.06-3.29,2.66-3.91l38.56-18.33V45.42c0-1.72,1.06-3.29,2.66-3.91l39.37-18.72v0.54
			c0.59,0.02,1.15,0.16,1.67,0.43l35.12,17.81c1.51,0.59,2.53,2.12,2.53,3.86V92.6l0.07,0.45c0.63,0,1.24,0.16,1.8,0.45l35.12,17.81
			c1.51,0.59,2.53,2.12,2.53,3.86v49.98h-0.23c-0.34,0.97-1.01,1.8-1.94,2.3l-36.32,19.89l-0.25,0.14l-0.25,0.11l-0.13,0.09
			l-0.5,0.13l-0.66,0.13l-0.31,0.02L340.09,187.97z M344.85,177.07l28.19-15.44v-39.08l-28.19,15.44V177.07z M264.17,177.07
			l28.19-15.44v-39.08l-28.19,15.44V177.07z M336.19,176.73v-39.08l-11.76-6.45v8.65l-9.73-4.6v-9.41l-6.7-3.66v39.08L336.19,176.73
			z M255.46,176.73v-39.08l-11.76-6.45v8.65l-9.73-4.6v-9.41l-6.68-3.66v39.08L255.46,176.73z M340.36,130.39l27.56-15.1
			l-10.81-5.48l-27.83,14.51L340.36,130.39z M259.62,130.39l27.56-15.1l-10.81-5.48l-27.83,14.51L259.62,130.39z M238.26,118.67
			l27.41-14.29l-4.92-2.5L232.3,115.4L238.26,118.67z M318.99,118.67l27.41-14.29l-4.92-2.5l-28.46,13.52L318.99,118.67z
			 M296.71,107.97V68.89l-11.76-6.45v8.65l-9.73-4.6v-9.39l-6.7-3.66v39.08L296.71,107.97z M305.53,107.24l28.19-15.44V52.71
			l-28.19,15.44V107.24z M300.84,60.67l27.59-15.46l-10.81-5.49l-27.88,14.87L300.84,60.67z M281.44,49.93l27.45-14.65l-6.68-3.32
			l-28.47,13.88L281.44,49.93z"/>
	</g>
</g>
</svg>
