<?xml version="1.0" encoding="utf-8"?>
<!-- Generator: Adobe Illustrator 25.0.0, SVG Export Plug-In . SVG Version: 6.00 Build 0)  -->
<svg version="1.1" id="Layer_1" xmlns="http://www.w3.org/2000/svg" xmlns:xlink="http://www.w3.org/1999/xlink" x="0px" y="0px"
	 viewBox="0 0 600 200" style="enable-background:new 0 0 600 200;" xml:space="preserve">
<style type="text/css">
	.st0{fill:none;stroke:#000000;stroke-miterlimit:10;}
	.st1{fill:#FFFFFF;}
	.st2{font-family:'MyriadPro-Regular';}
	.st3{font-size:12px;}
</style>
<g>
	<rect x="222.5" y="29" class="st0" width="155" height="142"/>
	<line class="st0" x1="222.5" y1="147.33" x2="377.5" y2="147.33"/>
	<line class="st0" x1="222.5" y1="123.67" x2="377.5" y2="123.67"/>
	<line class="st0" x1="222.5" y1="100" x2="377.5" y2="100"/>
	<line class="st0" x1="222.5" y1="76.33" x2="377.5" y2="76.33"/>
	<line class="st0" x1="222.5" y1="52.67" x2="377.5" y2="52.67"/>
	<line class="st0" x1="351.67" y1="29" x2="351.67" y2="171"/>
	<line class="st0" x1="325.83" y1="29" x2="325.83" y2="171"/>
	<line class="st0" x1="300" y1="29" x2="300" y2="171"/>
	<line class="st0" x1="274.17" y1="29" x2="274.17" y2="171"/>
	<line class="st0" x1="248.33" y1="29" x2="248.33" y2="171"/>
</g>
<g>
	<g>
		<path d="M193.44,51.28c1.93,0,1.93-3,0-3C191.51,48.28,191.51,51.28,193.44,51.28L193.44,51.28z"/>
	</g>
</g>
<g>
	<g>
		<path d="M193.79,44.58c-1.87,1.3-2.81,3.65-3.52,5.74c-0.34,1.01-0.6,2.04-0.78,3.09c-0.23,1.36-0.42,2.67,0.85,3.58
			c0.66,0.47,1.67,0.11,2.05-0.54c0.44-0.76,0.12-1.58-0.54-2.05c0.29,0.17,0.43,0.39,0.44,0.67c0-0.09,0-0.17,0.01-0.26
			c0.01-0.13,0.01-0.14,0.05-0.34c0.07-0.44,0.15-0.87,0.25-1.31c0.18-0.81,0.41-1.6,0.69-2.38c0.27-0.75,0.53-1.34,0.91-2.08
			c0.17-0.33,0.36-0.65,0.56-0.96c0.09-0.14,0.42-0.49,0.55-0.58c0.66-0.46,0.97-1.31,0.54-2.05
			C195.46,44.46,194.46,44.11,193.79,44.58L193.79,44.58z"/>
	</g>
</g>
<g>
	<g>
		<path d="M190.8,52.01c-0.11,0.14-0.13,0.17-0.06,0.08c-0.07,0.08-0.13,0.17-0.2,0.25c-0.14,0.16-0.29,0.31-0.45,0.45
			c0.84,0.49,1.67,0.97,2.51,1.46c0.68-3.34,1.9-6.19,3.82-9c-0.86-0.5-1.73-1.01-2.59-1.51c-0.39,0.82-0.74,1.65-1.09,2.48
			c-0.08,0.19-0.16,0.38-0.24,0.57c-0.04,0.1-0.08,0.19-0.12,0.29c-0.02,0.06-0.09,0.22-0.03,0.07c-0.17,0.4-0.35,0.81-0.53,1.21
			c-0.34,0.74-0.7,1.48-1.12,2.18c-0.21,0.35-0.43,0.69-0.67,1.02c-0.02,0.02-0.18,0.24-0.11,0.15c0.06-0.08-0.1,0.13-0.12,0.15
			c-0.14,0.17-0.27,0.34-0.44,0.48c0.22-0.13,0.44-0.26,0.66-0.39c-0.03,0-0.05,0.01-0.08,0.01c0.39,0.05,0.77,0.1,1.16,0.15
			c-0.02-0.01-0.04-0.02-0.06-0.03c0.18,0.18,0.36,0.36,0.54,0.54c0.12,0.23,0.16,0.47,0.11,0.71c0.21-0.76-0.26-1.67-1.05-1.85
			c-0.79-0.18-1.62,0.24-1.85,1.05c-0.22,0.8,0.01,1.72,0.76,2.15c0.89,0.51,1.73,0.05,2.31-0.65c0.74-0.88,1.37-1.84,1.9-2.86
			c0.53-1,0.97-2.05,1.41-3.09c0.11-0.26,0.22-0.53,0.33-0.79c0.01-0.03,0.16-0.37,0.1-0.25c-0.05,0.12,0.09-0.22,0.11-0.25
			c0.22-0.52,0.45-1.04,0.7-1.55c0.34-0.71,0.22-1.65-0.54-2.05c-0.76-0.4-1.58-0.15-2.05,0.54c-2,2.92-3.42,6.25-4.13,9.72
			c-0.31,1.49,1.36,2.47,2.51,1.46c0.46-0.4,0.81-0.89,1.18-1.38c0.47-0.63,0.12-1.7-0.54-2.05
			C192.07,51.06,191.31,51.34,190.8,52.01L190.8,52.01z"/>
	</g>
</g>
<g>
	<g>
		<path d="M193.13,49.76c0.06,0,0.12,0.01,0.18,0.01c0.22,0.13,0.44,0.26,0.66,0.39c0.01,0.01,0.15,0.3,0.16,0.3
			c0.08,0.03-0.01,0.02,0.03-0.11c0.1-0.34,0.12-0.73,0.2-1.08c0.15-0.68,0.35-1.34,0.6-1.99c0.5-1.31,1.5-2.47,1.51-3.92
			c0.01-1.45-2.09-2.1-2.8-0.76c-2.4,4.6-5.77,8.7-9.89,11.87c-0.64,0.49-0.98,1.29-0.54,2.05c0.42,0.71,1.34,0.93,2.05,0.54
			c0.53-0.29,0.86-0.75,1.03-1.33c0.54-1.86-2.35-2.65-2.89-0.8c0.12-0.16,0.23-0.31,0.35-0.47c0.5,0.86,1.01,1.73,1.51,2.59
			c4.54-3.48,8.31-7.86,10.96-12.94c-0.93-0.25-1.86-0.5-2.8-0.76c0,0.57-0.65,1.38-0.91,1.96c-0.4,0.88-0.75,1.79-0.99,2.73
			c-0.21,0.81-0.46,1.76-0.42,2.61c0.05,1.11,0.79,2.09,1.97,2.1C195.06,52.77,195.06,49.77,193.13,49.76L193.13,49.76z"/>
	</g>
</g>
<g>
	<g>
		<path d="M185.83,49.51c-1.03,1.43-1.97,2.92-2.81,4.46c-0.58,1.05,0.4,2.7,1.69,2.2c4.29-1.64,8.39-3.74,12.46-5.85
			c-0.73-0.56-1.47-1.13-2.2-1.69c-0.46,1.19-1.21,2.22-2.14,3.08c-1.41,1.32,0.71,3.44,2.12,2.12c1.32-1.23,2.26-2.73,2.91-4.41
			c0.21-0.55-0.1-1.25-0.54-1.58c-0.5-0.37-1.11-0.4-1.67-0.12c-3.84,1.99-7.7,3.99-11.75,5.54c0.56,0.73,1.13,1.47,1.69,2.2
			c0.85-1.54,1.79-3.03,2.81-4.46c0.47-0.66,0.11-1.67-0.54-2.05C187.13,48.53,186.3,48.85,185.83,49.51L185.83,49.51z"/>
	</g>
</g>
<g>
	<g>
		<path class="st1" d="M209.67,45.68c-4.76,3.54-10.77,5.25-16.68,4.43c0.35,0.62,0.7,1.23,1.05,1.85c0.99-3.38,2.73-6.45,5.13-9.03
			c-0.84-0.49-1.67-0.97-2.51-1.46c-1.02,3.32-3.21,6.04-5.38,8.69c0.79,0.61,1.57,1.21,2.36,1.82c0.96-1.63,2.01-3.19,3.16-4.69
			c-0.86-0.5-1.73-1.01-2.59-1.51c-1.37,2.84-3.18,5.36-5.47,7.53c0.85,0.35,1.71,0.71,2.56,1.06c-0.2-3.13,1.24-5.9,2.67-8.59
			c-0.86-0.5-1.73-1.01-2.59-1.51c-1.69,3.58-3.91,6.81-6.68,9.64c0.84,0.49,1.67,0.97,2.51,1.46c1.06-2.9,2.12-5.8,3.19-8.7
			c0.58-1.58-2.04-2.71-2.74-1.16c-1.55,3.46-3.13,6.91-5.08,10.16c0.91,0.39,1.83,0.77,2.74,1.16c0.74-3.82,2.34-7.39,4.82-10.39
			c-0.84-0.22-1.67-0.44-2.51-0.66c1.76,4.83,1.71,10.03,2.77,15.02c0.26,1.22,2.18,1.5,2.74,0.36c1.55-3.17,3.12-6.33,4.65-9.5
			c1.42-2.94,2.76-5.94,3.55-9.11c0.47-1.88-2.33-2.64-2.89-0.8c-1,3.28-2.46,6.37-4.38,9.22c-1.77,2.64-4.03,5.64-6.98,7.02
			c0.75,0.43,1.5,0.86,2.26,1.3c-0.69-6.63,1.14-13.19,5.17-18.51c-0.86,0-1.73,0-2.59,0c0.99,1.78,0.42,4.69,0.1,6.61
			c-0.35,2.11-0.92,4.19-1.66,6.2c-1.53,4.13-3.87,7.96-6.66,11.35c0.84,0.22,1.67,0.44,2.51,0.66c-0.76-3.94,1.2-8.37,3.07-11.73
			c1.99-3.57,4.53-6.78,7.1-9.95c-0.84-0.49-1.67-0.97-2.51-1.46c-1.45,6.08-4.11,11.73-7.83,16.74c0.93,0.25,1.86,0.5,2.8,0.76
			c0.12-7.89,5.65-14.37,8.56-21.38c-0.96-0.27-1.93-0.53-2.89-0.8c-1.01,3.89-3.02,7.34-5.3,10.62c-2.45,3.54-5.11,6.93-7.88,10.22
			c-1.24,1.47,0.88,3.6,2.12,2.12c2.94-3.49,5.76-7.08,8.35-10.83c2.41-3.49,4.52-7.21,5.6-11.34c0.5-1.92-2.17-2.53-2.89-0.8
			c-3.07,7.38-8.54,13.83-8.67,22.18c-0.02,1.61,1.97,1.87,2.8,0.76c3.86-5.2,6.63-11.16,8.13-17.46c0.32-1.34-1.5-2.7-2.51-1.46
			c-2.9,3.58-5.81,7.21-7.97,11.3c-2.1,3.98-3.84,8.75-2.97,13.3c0.2,1.06,1.81,1.51,2.51,0.66c3.22-3.92,5.86-8.27,7.57-13.07
			c0.84-2.34,1.41-4.76,1.72-7.23c0.31-2.45,0.64-5.26-0.61-7.5c-0.6-1.08-1.95-0.85-2.59,0c-4.29,5.68-6.31,12.94-5.57,20.02
			c0.12,1.18,1.17,1.81,2.26,1.3c3.29-1.54,5.8-4.83,7.82-7.75c2.17-3.14,3.8-6.64,4.92-10.29c-0.96-0.27-1.93-0.53-2.89-0.8
			c-0.77,3.08-2.06,5.96-3.45,8.81c-1.48,3.03-2.97,6.06-4.45,9.09c0.91,0.12,1.83,0.24,2.74,0.36c-1.06-4.99-1.01-10.19-2.77-15.02
			c-0.35-0.95-1.73-1.61-2.51-0.66c-2.8,3.41-4.75,7.37-5.59,11.72c-0.31,1.62,1.83,2.68,2.74,1.16c1.96-3.25,3.53-6.7,5.08-10.16
			c-0.91-0.39-1.83-0.77-2.74-1.16c-1.06,2.9-2.12,5.8-3.19,8.7c-0.53,1.44,1.51,2.48,2.51,1.46c2.94-3,5.36-6.45,7.15-10.25
			c0.81-1.72-1.67-3.24-2.59-1.51c-1.68,3.14-3.32,6.45-3.08,10.11c0.08,1.29,1.58,1.99,2.56,1.06c2.46-2.34,4.47-5.08,5.94-8.14
			c0.85-1.77-1.43-3.03-2.59-1.51c-1.14,1.5-2.2,3.06-3.16,4.69c-0.84,1.42,1.25,3.17,2.36,1.82c2.51-3.06,4.97-6.18,6.15-10.02
			c0.44-1.42-1.49-2.55-2.51-1.46c-2.75,2.96-4.76,6.47-5.9,10.36c-0.21,0.7,0.25,1.74,1.05,1.85c6.7,0.92,13.54-0.68,19-4.73
			C212.72,47.14,211.22,44.53,209.67,45.68L209.67,45.68z"/>
	</g>
</g>
<g>
	<g>
		<path class="st1" d="M245.89,50.48c0.82,0.03,1.6,0.13,2.4,0.32c-0.12-0.91-0.24-1.83-0.36-2.74c-0.17,0.12-0.37,0.3-0.6,0.26
			c-0.13,0.98-0.27,1.96-0.4,2.95c0.65-0.03,1.22,0.03,1.84,0.22c0.13-0.98,0.27-1.96,0.4-2.95c-0.7,0.07-1.4,0.1-2.11,0.07
			c0,1,0,2,0,3c0.88,0,1.75-0.01,2.63-0.01c1.23-0.01,2.07-1.68,1.06-2.56c-0.55-0.48-1.15-0.77-1.77-1.13
			c-0.75-0.43-0.02-0.02-0.26,0.07c0.17-0.06,0.49-0.55,0.6-0.67c1.32-1.38,1.94-3.21,1.54-5.11c-0.18-0.86-0.78-1.52-1.02-2.33
			c-0.24-0.83,0.2-1.96,0.24-2.82c0.1-2.1-0.38-4.14-1.22-6.05c-0.33-0.74-1.41-0.91-2.05-0.54c-0.76,0.45-0.87,1.31-0.54,2.05
			c0.8,1.82,0.97,3.79,0.67,5.74c-0.17,1.14-0.19,2.1,0.32,3.16c0.37,0.76,0.83,1.38,0.71,2.28c-0.22,1.71-2.26,2.37-2.24,4.24
			c0.01,0.92,0.5,1.69,1.22,2.22c0.52,0.39,1.19,0.58,1.67,1c0.35-0.85,0.71-1.71,1.06-2.56c-0.88,0-1.75,0.01-2.63,0.01
			c-1.94,0.01-1.93,2.93,0,3c0.71,0.03,1.4,0,2.11-0.07c1.62-0.17,2.12-2.43,0.4-2.95c-0.86-0.26-1.74-0.37-2.64-0.32
			c-1.59,0.08-2.16,2.67-0.4,2.95c1.04,0.17,2.03,0.07,2.91-0.56c0.98-0.7,1-2.42-0.36-2.74c-1.05-0.25-2.12-0.39-3.19-0.42
			C243.96,47.42,243.96,50.42,245.89,50.48L245.89,50.48z"/>
	</g>
</g>
<g>
	<g>
		<path class="st1" d="M247.66,35.97c0.09,1.63,0.11,3.27,0.05,4.9c-0.02,0.39-0.03,0.79-0.06,1.18c-0.01,0.09-0.01,0.18-0.02,0.28
			c0.03-0.17,0.03-0.17,0,0.01c-0.01,0.06-0.16,0.49-0.08,0.33c0.04-0.1,0.03-0.08-0.03,0.04c-0.09,0.14-0.08,0.13,0.03-0.02
			c-0.12,0.11-0.11,0.11,0.04-0.01c-0.15,0.08-0.13,0.08,0.05-0.01c0.22-0.01,0.24-0.02,0.08-0.02c0.13-0.01,0.24,0.02,0.35,0.08
			c0.1,0.07,0.18,0.15,0.23,0.26c0.07,0.21,0.08,0.23,0.05,0.07c-0.15-0.77-1.11-1.28-1.85-1.05c-0.82,0.26-1.21,1.02-1.05,1.85
			c0.27,1.33,1.85,2.11,3.09,1.66c1.26-0.45,1.88-1.59,2.05-2.86c0.15-1.09,0.15-2.22,0.16-3.32c0.01-1.13-0.02-2.25-0.08-3.38
			c-0.04-0.78-0.66-1.54-1.5-1.5C248.39,34.51,247.61,35.13,247.66,35.97L247.66,35.97z"/>
	</g>
</g>
<g>
	<g>
		<path class="st1" d="M247.3,32.48c0.4-0.13,0.81-0.23,1.22-0.29c-0.13,0.02-0.27,0.04-0.4,0.05c0.61-0.08,1.22-0.08,1.82,0
			c-0.13-0.02-0.27-0.04-0.4-0.05c0.02,0,0.04,0.01,0.06,0.01c0.2,0.06,0.4,0.07,0.6,0.03c0.2-0.01,0.39-0.07,0.56-0.18
			c0.31-0.18,0.61-0.54,0.69-0.9c0.09-0.38,0.07-0.81-0.15-1.16c-0.2-0.3-0.52-0.64-0.9-0.69c-0.66-0.09-1.3-0.16-1.97-0.1
			c-0.66,0.06-1.31,0.17-1.93,0.38c-0.37,0.12-0.7,0.35-0.9,0.69c-0.19,0.32-0.27,0.8-0.15,1.16c0.12,0.36,0.34,0.71,0.69,0.9
			C246.49,32.51,246.91,32.6,247.3,32.48L247.3,32.48z"/>
	</g>
</g>
<g>
	<g>
		<path class="st1" d="M244.43,47.41c-0.08,0.45-0.09,0.74,0,1.19c0.03,0.14,0.09,0.27,0.14,0.41c0.05,0.13,0.1,0.25,0.17,0.37
			c0.3,0.5,0.74,0.88,1.22,1.19c0.68,0.43,1.41,0.79,2.12,1.17c0.25-0.93,0.5-1.86,0.76-2.8c-0.41,0-0.82,0.01-1.23,0.01
			c-0.39,0-0.79,0.16-1.06,0.44c-0.26,0.26-0.46,0.69-0.44,1.06c0.02,0.39,0.14,0.79,0.44,1.06c0.29,0.27,0.65,0.44,1.06,0.44
			c0.35,0,0.7,0,1.05,0c0.39,0,0.79-0.17,1.06-0.44c0.26-0.26,0.46-0.69,0.44-1.06c-0.02-0.39-0.14-0.79-0.44-1.06
			c-0.29-0.27-0.65-0.44-1.06-0.44c-0.19,0-0.38,0-0.57,0c0,1,0,2,0,3c0.36,0,0.72,0,1.08,0c0-1,0-2,0-3c-0.41,0-0.82,0-1.22,0
			c-0.38,0-0.79,0.17-1.06,0.44c-0.26,0.26-0.46,0.69-0.44,1.06c0.02,0.39,0.14,0.79,0.44,1.06c0.29,0.27,0.65,0.44,1.06,0.44
			c0.25,0,0.5,0,0.75,0c0.38,0,0.79-0.17,1.06-0.44c0.26-0.26,0.46-0.69,0.44-1.06c-0.02-0.39-0.14-0.79-0.44-1.06
			c-0.29-0.27-0.65-0.44-1.06-0.44c-0.13,0-0.25,0-0.38,0c-0.38,0-0.79,0.17-1.06,0.44c-0.26,0.26-0.46,0.69-0.44,1.06
			c0.02,0.39,0.14,0.79,0.44,1.06c0.29,0.27,0.65,0.44,1.06,0.44c0.13,0,0.25,0,0.38,0c0.38,0,0.79-0.17,1.06-0.44
			c0.26-0.26,0.46-0.69,0.44-1.06c-0.02-0.39-0.14-0.79-0.44-1.06c-0.29-0.27-0.65-0.44-1.06-0.44c-0.25,0-0.5,0-0.75,0
			c-0.38,0-0.79,0.17-1.06,0.44c-0.26,0.26-0.46,0.69-0.44,1.06c0.02,0.39,0.14,0.79,0.44,1.06c0.29,0.27,0.65,0.44,1.06,0.44
			c0.41,0,0.82,0,1.22,0c0.38,0,0.79-0.17,1.06-0.44c0.26-0.26,0.46-0.69,0.44-1.06c-0.02-0.39-0.14-0.79-0.44-1.06
			c-0.29-0.27-0.65-0.44-1.06-0.44c-0.36,0-0.72,0-1.08,0c-0.38,0-0.79,0.17-1.06,0.44c-0.26,0.26-0.46,0.69-0.44,1.06
			c0.02,0.39,0.14,0.79,0.44,1.06c0.29,0.27,0.65,0.44,1.06,0.44c0.19,0,0.38,0,0.57,0c0-1,0-2,0-3c-0.35,0-0.7,0-1.05,0
			c0,1,0,2,0,3c0.41,0,0.82-0.01,1.23-0.01c0.63-0.01,1.3-0.46,1.45-1.1c0.15-0.64-0.09-1.37-0.69-1.69
			c-0.42-0.23-0.84-0.46-1.26-0.69c-0.38-0.21-0.77-0.4-1.11-0.66c0.1,0.08,0.2,0.16,0.3,0.23c-0.13-0.1-0.25-0.21-0.35-0.34
			c0.08,0.1,0.16,0.2,0.23,0.3c-0.07-0.1-0.14-0.21-0.19-0.32c0.05,0.12,0.1,0.24,0.15,0.36c-0.04-0.1-0.07-0.2-0.08-0.3
			c0.02,0.13,0.04,0.27,0.05,0.4c-0.01-0.09-0.01-0.17,0-0.26c-0.02,0.13-0.04,0.27-0.05,0.4c0-0.02,0.01-0.03,0.01-0.05
			c0.07-0.4,0.06-0.79-0.15-1.16c-0.18-0.31-0.54-0.61-0.9-0.69c-0.38-0.09-0.82-0.07-1.16,0.15
			C244.81,46.71,244.5,47.03,244.43,47.41L244.43,47.41z"/>
	</g>
</g>
<g>
	<g>
		<path class="st1" d="M265.49,46.06c0.07,0.07,0.15,0.15,0.22,0.22c0.14,0.15,0.3,0.25,0.48,0.31c0.18,0.09,0.37,0.14,0.58,0.13
			c0.21,0.01,0.4-0.04,0.58-0.13c0.19-0.06,0.35-0.16,0.48-0.31c0.08-0.1,0.16-0.2,0.23-0.3c0.14-0.23,0.2-0.49,0.2-0.76
			c-0.02-0.13-0.04-0.27-0.05-0.4c-0.07-0.25-0.2-0.47-0.39-0.66c-0.07-0.07-0.15-0.15-0.22-0.22c-0.14-0.15-0.3-0.25-0.48-0.31
			c-0.18-0.09-0.37-0.14-0.58-0.13c-0.21-0.01-0.4,0.04-0.58,0.13c-0.19,0.06-0.35,0.16-0.48,0.31c-0.08,0.1-0.16,0.2-0.23,0.3
			c-0.14,0.23-0.2,0.49-0.2,0.76c0.02,0.13,0.04,0.27,0.05,0.4C265.18,45.65,265.31,45.87,265.49,46.06L265.49,46.06z"/>
	</g>
</g>
<g>
	<g>
		<path class="st1" d="M272.66,51.68c0.65,0.07,1.29,0.14,1.94,0.22c0-1,0-2,0-3c-0.28,0.01-0.55,0.03-0.83,0.04
			c0.5,0.5,1,1,1.5,1.5c0-0.03-0.01-0.07-0.01-0.1c-0.25,0.43-0.5,0.86-0.74,1.3c-0.17,0.06-0.34,0.11-0.51,0.17
			c-0.43-0.25-0.86-0.5-1.3-0.74c0.02,0.04,0.04,0.07,0.06,0.11c0-0.5,0-1.01,0-1.51c-0.04,0.05-0.07,0.1-0.11,0.15
			c0.43-0.25,0.86-0.5,1.3-0.74c0.12,0.04,0.25,0.08,0.37,0.12c0.23,0.3,0.46,0.6,0.69,0.9c-0.26-0.75,0.27-2.32,0.37-3.13
			c0.14-1.08,0.28-2.16,0.36-3.24c0.15-2,0.09-3.98-0.18-5.96c-0.14-1.07-0.34-2.12-0.59-3.17c-0.09-0.36-0.49-1.66-0.34-1.83
			c0.1-0.11,1.99,0.5,2.42,0.61c1.07,0.27,2.13,0.55,3.2,0.82c1.98,0.51,3.96,1.1,5.98,1.42c2.18,0.35,4.27,0.14,6.46,0.03
			c1.83-0.09,3.87,0.39,5.61-0.31c1.7-0.68,2.55-2.22,2.3-4c-0.48,0.63-0.96,1.27-1.45,1.9c0.26-0.03,0.52-0.06,0.78-0.09
			c1.5-0.17,2.02-1.89,0.76-2.8c-0.17-0.15-0.36-0.26-0.58-0.32c-0.25,0.93-0.5,1.86-0.76,2.8c0.57-0.07,1.14-0.14,1.71-0.21
			c-0.48-0.63-0.96-1.27-1.45-1.9c-0.53,1.67-1.04,3.34-1.28,5.09c-0.23,1.67-0.08,3.38-0.42,5.04c-0.32,1.56-0.73,3.04-0.44,4.64
			c0.27,1.47,1.14,2.79,0.98,4.32c-0.2,1.92,2.8,1.9,3,0c0.15-1.39-0.34-2.63-0.77-3.93c-0.55-1.69-0.09-3.01,0.2-4.69
			c0.28-1.59,0.17-3.19,0.36-4.78c0.2-1.67,0.74-3.29,1.24-4.89c0.27-0.84-0.48-2.02-1.45-1.9c-0.57,0.07-1.14,0.14-1.71,0.21
			c-1.25,0.16-2.31,2.14-0.76,2.8c0.22,0.06,0.41,0.17,0.58,0.32c0.25-0.93,0.5-1.86,0.76-2.8c-0.26,0.03-0.52,0.06-0.78,0.09
			c-1.05,0.12-1.6,0.86-1.45,1.9c0.11,0.8-5.23,0.52-5.94,0.57c-2.45,0.17-4.66,0.12-7.05-0.47c-2.29-0.56-4.57-1.17-6.86-1.75
			c-1.76-0.45-4-1.36-5.44,0.28c-1.27,1.44-0.6,3.44-0.22,5.08c0.53,2.28,0.72,4.61,0.61,6.94c-0.11,2.38-0.72,4.73-0.82,7.1
			c-0.09,2.01,2.12,3.02,3.38,1.31c0.32-0.43,0.23-1.07,0-1.51c-0.48-0.92-1.51-1.01-2.36-0.61c-0.44,0.21-0.78,0.82-0.74,1.3
			c0,0.03,0.01,0.07,0.01,0.1c0.06,0.78,0.64,1.54,1.5,1.5c0.28-0.01,0.55-0.03,0.83-0.04c1.97-0.09,1.89-2.79,0-3
			c-0.65-0.07-1.29-0.14-1.94-0.22C270.74,48.47,270.76,51.47,272.66,51.68L272.66,51.68z"/>
	</g>
</g>
<g>
	<g>
		<path class="st1" d="M274.44,52.17c1.93,0,1.93-3,0-3C272.51,49.17,272.51,52.17,274.44,52.17L274.44,52.17z"/>
	</g>
</g>
<g>
	<g>
		<path class="st1" d="M273.86,52.14c1.93,0,1.93-3,0-3C271.93,49.14,271.93,52.14,273.86,52.14L273.86,52.14z"/>
	</g>
</g>
<g>
	<g>
		<path class="st1" d="M300.03,52c1.93,0,1.93-3,0-3C298.1,49,298.09,52,300.03,52L300.03,52z"/>
	</g>
</g>
<g>
	<g>
		<path class="st1" d="M299.94,52.22c1.93,0,1.93-3,0-3C298.01,49.22,298.01,52.22,299.94,52.22L299.94,52.22z"/>
	</g>
</g>
<g>
	<g>
		<path class="st1" d="M302.06,45.73c0.39-1.43,0.39-2.95,0.02-4.39c-0.09-0.36-0.37-0.71-0.69-0.9c-0.32-0.19-0.8-0.27-1.16-0.15
			c-0.78,0.25-1.26,1.03-1.05,1.85c0.07,0.28,0.13,0.56,0.17,0.84c-0.02-0.13-0.04-0.27-0.05-0.4c0.08,0.61,0.08,1.23,0,1.84
			c0.02-0.13,0.04-0.27,0.05-0.4c-0.04,0.31-0.1,0.61-0.19,0.9c-0.1,0.38-0.05,0.82,0.15,1.16c0.18,0.31,0.54,0.61,0.9,0.69
			C301,46.96,301.84,46.54,302.06,45.73L302.06,45.73z"/>
	</g>
</g>
<g>
	<g>
		<path class="st1" d="M299.97,32.53c1.93,0,1.93-3,0-3C298.04,29.53,298.04,32.53,299.97,32.53L299.97,32.53z"/>
	</g>
</g>
<g>
	<g>
		<path class="st1" d="M300.22,32.53c1.93,0,1.93-3,0-3C298.29,29.53,298.29,32.53,300.22,32.53L300.22,32.53z"/>
	</g>
</g>
<g>
	<g>
		<path class="st1" d="M276.1,32.62c-0.07-0.07-0.14-0.14-0.2-0.22c0.08,0.1,0.16,0.2,0.23,0.3c-0.13-0.17-0.24-0.36-0.33-0.57
			c0.05,0.12,0.1,0.24,0.15,0.36c-0.09-0.22-0.15-0.44-0.18-0.67c0.02,0.13,0.04,0.27,0.05,0.4c-0.01-0.12-0.02-0.23-0.02-0.35
			c0-0.06,0-0.12,0.01-0.18c0.01-0.14-0.01-0.24-0.03-0.38c-0.05-0.4-0.23-0.75-0.51-1.04c-0.15-0.16-0.34-0.29-0.53-0.41
			c-0.32-0.2-0.79-0.25-1.16-0.15c-0.35,0.1-0.73,0.36-0.9,0.69c-0.18,0.35-0.28,0.77-0.15,1.16c0.12,0.38,0.35,0.68,0.69,0.9
			c0.05,0.03,0.1,0.06,0.15,0.1c-0.1-0.08-0.2-0.16-0.3-0.23c0.04,0.03,0.07,0.06,0.1,0.1c-0.08-0.1-0.16-0.2-0.23-0.3
			c0.02,0.03,0.04,0.05,0.05,0.09c-0.05-0.12-0.1-0.24-0.15-0.36c0.01,0.02,0.02,0.04,0.02,0.07c-0.02-0.13-0.04-0.27-0.05-0.4
			c0.03,0.21-0.02,0.42,0,0.64c0.03,0.32,0.07,0.65,0.17,0.96c0.2,0.61,0.52,1.2,0.99,1.64c0.28,0.27,0.67,0.44,1.06,0.44
			c0.37,0,0.81-0.16,1.06-0.44c0.26-0.29,0.46-0.66,0.44-1.06C276.52,33.29,276.39,32.9,276.1,32.62L276.1,32.62z"/>
	</g>
</g>
<g>
	<g>
		<path class="st1" d="M274.11,32.47c1.93,0,1.93-3,0-3C272.18,29.47,272.18,32.47,274.11,32.47L274.11,32.47z"/>
	</g>
</g>
<g>
	<g>
		<path class="st1" d="M324.64,51.78c0.36-0.15,0.48-0.17,0.85-0.04c0-0.96,0-1.93,0-2.89c-0.14,0.04-0.28,0.08-0.42,0.11
			c-1.69,0.46-1.25,2.84,0.4,2.95c0.26,0.02,0.52,0.03,0.78,0.05c0-1,0-2,0-3c-0.22,0.02-0.43,0.04-0.65,0.06
			c-1.88,0.18-1.97,3.01,0,3c0.25,0,0.5,0,0.74-0.01c0-1,0-2,0-3c-0.27,0.01-0.54,0.02-0.81,0.03c-1.92,0.08-1.94,3.07,0,3
			c0.24-0.01,0.49-0.02,0.73-0.03c1.92-0.07,1.94-3,0-3c-0.31,0-0.61,0-0.92,0c0.25,0.93,0.5,1.86,0.76,2.8
			c1.83-0.8,1.04-3.7,1.11-5.22c0.11-2.29,0.18-4.56,0.07-6.85c-0.1-2.19-0.18-4.31,0.11-6.5c0.13-1,0.38-2.04-0.25-2.93
			c-0.62-0.88-1.71-1.03-2.62-0.55c-1.17,0.61-0.84,2.4,0.36,2.74c0.46,0.13,0.92,0.19,1.4,0.2c1.66,0.02,2.09-2.6,0.4-2.95
			c0.05,0.02,0.1,0.04,0.15,0.06c0.25,0.43,0.5,0.86,0.74,1.3c0-0.04,0-0.08,0-0.11c-0.25,0.43-0.5,0.86-0.74,1.3
			c0.03-0.01,0.06-0.03,0.09-0.04c0.75-0.33,0.91-1.4,0.54-2.05c-0.44-0.77-1.32-0.86-2.05-0.54c-0.03,0.01-0.06,0.03-0.09,0.04
			c-0.47,0.21-0.74,0.81-0.74,1.3c-0.01,0.8,0.52,1.49,1.31,1.65c0.13-0.98,0.27-1.96,0.4-2.95c-0.21,0.03-0.41-0.01-0.61-0.09
			c0.12,0.91,0.24,1.83,0.36,2.74c0.06-0.03,0.11-0.06,0.17-0.09c-0.25,0.07-0.5,0.14-0.76,0.2c0.06,0,0.13,0.01,0.19,0.01
			c-0.25-0.07-0.5-0.14-0.76-0.2c0.01,0,0.01,0.01,0.02,0.01c-0.13-0.22-0.26-0.44-0.39-0.66c0.19,0.56-0.13,1.57-0.2,2.14
			c-0.09,0.72-0.15,1.44-0.17,2.16c-0.04,1.66,0.13,3.31,0.17,4.97c0.04,1.68,0.01,3.36-0.08,5.03c-0.04,0.66-0.08,1.31-0.04,1.97
			c0.02,0.31,0.07,0.61,0.08,0.91c0.02,0.2,0.02,0.4,0.01,0.61c-0.1,0.34,0,0.27,0.28-0.2c-1.42,0.62-0.63,2.79,0.76,2.8
			c0.31,0,0.61,0,0.92,0c0-1,0-2,0-3c-0.24,0.01-0.49,0.02-0.73,0.03c0,1,0,2,0,3c0.27-0.01,0.54-0.02,0.81-0.03
			c1.92-0.08,1.94-3.01,0-3c-0.25,0-0.5,0-0.74,0.01c0,1,0,2,0,3c0.22-0.02,0.43-0.04,0.65-0.06c1.91-0.19,1.95-2.87,0-3
			c-0.26-0.02-0.52-0.03-0.78-0.05c0.13,0.98,0.27,1.96,0.4,2.95c0.14-0.04,0.28-0.08,0.42-0.11c1.51-0.41,1.33-2.4,0-2.89
			c-0.79-0.29-1.66-0.29-2.44,0.04c-0.74,0.31-1.29,0.99-1.05,1.85C322.99,51.44,323.88,52.1,324.64,51.78L324.64,51.78z"/>
	</g>
</g>
<g>
	<g>
		<path class="st1" d="M326.03,52.08c1.93,0,1.93-3,0-3C324.1,49.08,324.09,52.08,326.03,52.08L326.03,52.08z"/>
	</g>
</g>
<g>
	<g>
		<path class="st1" d="M326.47,52.19c1.93,0,1.93-3,0-3C324.54,49.19,324.54,52.19,326.47,52.19L326.47,52.19z"/>
	</g>
</g>
<g>
	<g>
		<path class="st1" d="M325.31,52.08c1.93,0,1.93-3,0-3C323.38,49.08,323.37,52.08,325.31,52.08L325.31,52.08z"/>
	</g>
</g>
<g>
	<g>
		<path class="st1" d="M325.56,52.17c1.93,0,1.93-3,0-3C323.63,49.17,323.62,52.17,325.56,52.17L325.56,52.17z"/>
	</g>
</g>
<g>
	<g>
		<path class="st1" d="M351.24,32.58c0.09-0.02,0.18-0.03,0.27-0.05c-0.13,0.02-0.27,0.04-0.4,0.05c0.35-0.05,0.71-0.05,1.06,0
			c-0.13-0.02-0.27-0.04-0.4-0.05c0.09,0.01,0.18,0.03,0.27,0.04c0.13-0.98,0.27-1.96,0.4-2.95c-0.5-0.03-1.01-0.06-1.51-0.09
			c0.13,0.98,0.27,1.96,0.4,2.95c0.01,0,0.02,0,0.03,0c-0.13,0.02-0.27,0.04-0.4,0.05c0.34-0.05,0.69-0.08,1.04-0.1
			c0.21,0.01,0.4-0.04,0.58-0.13c0.19-0.06,0.35-0.16,0.48-0.31c0.15-0.14,0.25-0.3,0.31-0.48c0.09-0.18,0.14-0.37,0.13-0.58
			c-0.02-0.13-0.04-0.27-0.05-0.4c-0.07-0.25-0.2-0.47-0.39-0.66c-0.28-0.26-0.66-0.46-1.06-0.44c-0.49,0.03-0.98,0.09-1.47,0.15
			c-0.2,0.05-0.37,0.14-0.51,0.27c-0.16,0.11-0.29,0.25-0.39,0.42c-0.05,0.12-0.1,0.24-0.15,0.36c-0.06,0.2-0.07,0.4-0.03,0.6
			c0,0.14,0.03,0.26,0.1,0.38c0.06,0.19,0.16,0.35,0.31,0.48c0.1,0.08,0.2,0.16,0.3,0.23c0.23,0.14,0.49,0.2,0.76,0.2
			c0.5,0.03,1.01,0.06,1.51,0.09c0.21,0.01,0.4-0.04,0.58-0.13c0.19-0.06,0.35-0.16,0.48-0.31c0.08-0.1,0.16-0.2,0.23-0.3
			c0.11-0.17,0.17-0.36,0.18-0.56c0.04-0.13,0.04-0.27,0-0.4c-0.01-0.2-0.07-0.39-0.18-0.56c-0.2-0.31-0.52-0.61-0.9-0.69
			c-0.39-0.08-0.8-0.13-1.2-0.13c-0.4,0-0.81,0.06-1.2,0.14c-0.2,0.05-0.37,0.14-0.51,0.27c-0.16,0.11-0.29,0.25-0.39,0.42
			c-0.11,0.17-0.17,0.36-0.18,0.56c-0.04,0.2-0.04,0.4,0.03,0.6c0.12,0.36,0.34,0.71,0.69,0.9c0.12,0.05,0.24,0.1,0.36,0.15
			C350.71,32.65,350.97,32.65,351.24,32.58L351.24,32.58z"/>
	</g>
</g>
<g>
	<g>
		<path class="st1" d="M350.47,33.4c0.05,0.06,0.09,0.11,0.14,0.17c-0.13-0.22-0.26-0.44-0.39-0.66c0.79,2.54,0.86,5.69-0.01,8.2
			c-0.48,1.38-0.59,2.85-0.52,4.3c0.03,0.69,0.09,1.37,0.17,2.06c0.04,0.36,0.09,0.73,0.14,1.09c0.04,0.3,0.26,0.89,0.21,1.17
			c0.13-0.22,0.26-0.44,0.39-0.66c-0.04,0.05-0.09,0.1-0.13,0.15c0.22-0.13,0.44-0.26,0.66-0.39c-0.06,0.02-0.12,0.05-0.18,0.07
			c0.27,0,0.53,0,0.8,0c-0.06-0.02-0.12-0.04-0.18-0.05c-1.87-0.58-2.57,2.22-0.8,2.89c0.37,0.14,0.74,0.19,1.13,0.21c0-1,0-2,0-3
			c-0.29,0.04-0.58,0.08-0.87,0.11c-0.8,0.1-1.5,0.61-1.5,1.5c0,0.83,0.69,1.49,1.5,1.5c0.19,0,0.38,0,0.57,0.03
			c0.13-0.98,0.27-1.96,0.4-2.95c-0.33,0-0.67,0-1,0c0,1,0,2,0,3c0.51-0.01,1.01-0.01,1.52-0.02c1.93-0.02,1.93-3.02,0-3
			c-0.51,0.01-1.01,0.01-1.52,0.02c-1.93,0.02-1.93,3,0,3c0.33,0,0.67,0,1,0c1.63,0,2.12-2.68,0.4-2.95
			c-0.46-0.07-0.9-0.13-1.37-0.14c0,1,0,2,0,3c0.29-0.04,0.58-0.08,0.87-0.11c1.87-0.24,1.98-2.9,0-3c-0.12,0-0.23-0.04-0.34-0.1
			c-0.27,0.96-0.53,1.93-0.8,2.89c0.91,0.28,1.88-0.16,2.26-1.04c0.39-0.89,0-1.98-0.13-2.89c-0.25-1.83-0.47-3.84,0.1-5.63
			c0.25-0.79,0.53-1.5,0.63-2.33c0.12-0.94,0.15-1.9,0.13-2.85c-0.02-1-0.12-1.99-0.27-2.97c-0.15-0.99-0.26-1.95-0.91-2.74
			c-0.51-0.63-1.59-0.53-2.12,0C349.85,31.9,349.96,32.77,350.47,33.4L350.47,33.4z"/>
	</g>
</g>
<g>
	<g>
		<path d="M250.71,28.61c-0.35,0.02-0.71,0.02-1.07-0.02c-0.37-0.05-0.72-0.17-1.09-0.2c-0.37-0.04-0.74-0.02-1.11-0.01
			c-0.39,0-0.79-0.03-1.09,0.28c-0.45,0.46,0.26,1.17,0.71,0.71c-0.03,0.03-0.08,0.01-0.02,0.02c0.07,0.02,0.17,0,0.25,0
			c0.16,0,0.32,0,0.48,0c0.32,0,0.64-0.02,0.95,0.05c0.66,0.15,1.32,0.24,1.99,0.19c0.27-0.02,0.5-0.22,0.5-0.5
			C251.21,28.86,250.98,28.6,250.71,28.61L250.71,28.61z"/>
	</g>
</g>
<g>
	<g>
		<path d="M247.05,29.67c0.09-0.02,0.18-0.03,0.27-0.05c0.05-0.01,0.1-0.02,0.14-0.02c-0.09,0.01-0.01,0,0.03,0
			c0.17-0.02,0.35-0.03,0.52-0.04c0.36-0.02,0.71-0.01,1.06,0.03c0.26,0.03,0.51-0.25,0.5-0.5c-0.01-0.29-0.22-0.47-0.5-0.5
			c-0.77-0.08-1.54-0.03-2.3,0.12c-0.26,0.05-0.43,0.37-0.35,0.62C246.53,29.59,246.78,29.72,247.05,29.67L247.05,29.67z"/>
	</g>
</g>
<text transform="matrix(1 0 0 1 267.2703 43.522)" class="st2 st3">Repair Tickets</text>
</svg>
